<svg width="470" height="512" viewBox="0 0 470 512" fill="none" xmlns="http://www.w3.org/2000/svg">
<path d="M194.846 381.454V324.962L177.851 334.778L145.929 353.208C143.378 354.685 140.725 355.844 138.028 356.694C127.602 360.009 116.421 358.799 107.085 353.757C100.808 350.374 95.3627 345.264 91.5325 338.634C87.7108 332.004 86.0018 324.738 86.2079 317.61C86.5171 306.996 91.0601 296.716 99.1414 289.339C101.228 287.432 103.556 285.715 106.106 284.246L138.028 265.816L155.032 256L138.028 246.184L106.106 227.754C103.556 226.286 101.228 224.568 99.1414 222.661C91.0601 215.284 86.5171 205.004 86.2079 194.39C86.0018 187.262 87.7108 179.996 91.5411 173.366C95.3627 166.736 100.808 161.626 107.085 158.243C116.421 153.202 127.602 151.991 138.028 155.306C140.725 156.156 143.378 157.315 145.929 158.792L177.851 177.222L194.846 187.038V130.546C194.846 127.601 195.164 124.732 195.774 121.967C198.118 111.275 204.757 102.197 213.791 96.6323C219.863 92.8879 227.008 90.7323 234.669 90.7323C242.329 90.7323 249.466 92.8879 255.538 96.6323C258.252 98.307 260.751 100.291 262.975 102.541L326.432 66.2737C313.713 27.7822 277.429 0 234.669 0C183.819 0 142.142 39.273 138.32 89.1264C93.2244 67.5104 38.3812 83.9736 12.9608 127.996C-12.4597 172.026 0.714302 227.754 41.9711 256C0.714302 284.246 -12.4597 339.974 12.9608 383.996C38.3812 428.026 93.2244 444.49 138.32 422.874L195.782 390.033C195.164 387.268 194.846 384.399 194.846 381.454Z" fill="#E13D3D"/>
<path d="M427.358 256C468.615 227.754 481.789 172.026 456.368 127.996C430.948 83.9736 376.105 67.5104 331.009 89.1264L273.555 121.958C274.165 124.732 274.483 127.601 274.483 130.546V187.038L291.479 177.222L323.4 158.792C325.951 157.315 328.605 156.156 331.301 155.314C341.727 151.991 352.9 153.202 362.244 158.234C368.522 161.618 373.966 166.728 377.797 173.358C381.627 179.996 383.327 187.27 383.121 194.398C382.812 204.996 378.269 215.284 370.188 222.661C368.101 224.568 365.774 226.277 363.223 227.754L331.301 246.184L314.297 256L331.301 265.816L363.223 284.246C365.774 285.723 368.101 287.432 370.188 289.339C378.269 296.716 382.812 307.004 383.121 317.602C383.327 324.73 381.627 332.004 377.797 338.634C373.966 345.272 368.522 350.382 362.244 353.766C352.9 358.799 341.727 360.009 331.301 356.686C328.605 355.844 325.951 354.685 323.4 353.208L291.479 334.778L274.483 324.962V381.454C274.483 384.399 274.165 387.268 273.547 390.033C271.211 400.725 264.572 409.803 255.546 415.368C249.475 419.112 242.321 421.276 234.669 421.276C227.017 421.276 219.855 419.112 213.783 415.368C211.078 413.693 208.579 411.709 206.354 409.459L142.897 445.726C155.616 484.218 191.901 512 234.669 512C285.51 512 327.188 472.727 331.009 422.874C376.105 444.49 430.948 428.026 456.368 383.996C481.789 339.974 468.615 284.246 427.358 256Z" fill="#E13D3D"/>
</svg>
